<svg width="75" height="75" viewBox="0 0 75 75" fill="none" xmlns="http://www.w3.org/2000/svg"><path d="M52.88 54.87c.035-.034.052-.05.07-.085-.018.034-.035.051-.07.086zm-11.17-9.316l-1.166 2.985-.017.138c-.035.206-.138.377-.24.549l-.018.034v-.017c-.24.343-.583.6-1.012.686a1.643 1.643 0 01-1.647-.652l-9.162-13.16a1.662 1.662 0 01-.292-.96h-.017v-2.832l.034.035c.034-.258.086-.498.206-.738a2.03 2.03 0 011.819-1.098c.085 0 .188 0 .291.017l16.197 2.213c.824.12 1.493.704 1.699 1.493.086.292.069.583.017.875l.017-.017-.051.137c-.035.12-.069.24-.12.343l-.721 2.23V37.8c-.086.308-.24.6-.498.806 1.613.824 3.518 2.025 5.216 3.723l-1.44-18.307a.998.998 0 00-1.013-.927h-25.12c-.531 0-.96.412-1.012.927l-2.367 30.043a1.014 1.014 0 001.012 1.098h21.224c3.226-5.233 1.338-8.03-1.819-9.608zm11.376 9.008c.017-.035.035-.069.035-.103 0 .034-.018.068-.035.103z" fill="#EEA941"/><path d="M41.71 45.554l-1.166 2.985-.017.138c-.035.206-.138.377-.24.549l-.018.034v-.017c-.24.343-.583.6-1.012.686a1.643 1.643 0 01-1.647-.652l-3.106-4.444c-3.809 2.986-8.218 5.268-13.005 6.589l-.206 2.66a1.014 1.014 0 001.012 1.097h21.224c3.226-5.25 1.338-8.047-1.819-9.625zm10.553-3.209c-1.7-1.698-3.62-2.916-5.216-3.723.257-.223.411-.497.497-.806v.017l.72-2.23a2.47 2.47 0 00.12-.344l.052-.137-.017.017a2.147 2.147 0 00-.017-.875c-.223-.79-.875-1.39-1.699-1.493l-1.956-.274a37.501 37.501 0 003.346-9.386h1.733c.532 0 .961.412 1.012.927l1.425 18.307z" fill="#ED793F"/><path d="M44.319 38.828c-.55-.206-.653-.944-.19-1.304l2.729-2.127c.532-.412.309-1.27-.36-1.356L30.3 31.828c-.652-.086-1.116.652-.721 1.183 3.054 4.376 6.108 8.768 9.162 13.143.378.55 1.236.378 1.373-.274l.738-3.466c.103-.463.6-.738 1.03-.549 3.808 1.664 6.33 5.061 6.468 8.716.068 1.87-.515 3.449-1.133 4.581h4.942c.583 0 1.046-.497 1.012-1.098l-.755-9.642c-2.574-3.175-6.177-4.873-8.099-5.594z" fill="#884594"/><path d="M45.588 21.602h-1.801c-.43 0-.755-.343-.824-.755a5.779 5.779 0 00-5.73-5.01 5.779 5.779 0 00-5.731 5.01c-.052.429-.378.755-.824.755h-1.801c-.464 0-.858-.395-.824-.858.429-4.667 4.375-8.339 9.162-8.339 4.787 0 8.733 3.672 9.162 8.339.07.463-.326.858-.789.858z" fill="#EEA941"/></svg>