<svg width="123" height="123" viewBox="0 0 123 123" fill="none" xmlns="http://www.w3.org/2000/svg"><path d="M61.486 122.972c33.958 0 61.486-27.528 61.486-61.486S95.444 0 61.486 0 0 27.528 0 61.486s27.528 61.486 61.486 61.486z" fill="#fff"/><path d="M87.327 90.614zM68.881 75.228l-1.927 4.93-.028.227c-.057.34-.227.623-.397.907l-.028.056v-.028c-.397.567-.963.992-1.672 1.133-1.048.199-2.125-.226-2.72-1.076L46.98 59.644a2.745 2.745 0 01-.482-1.587h-.028v-4.675l.056.057c.057-.425.142-.822.34-1.218a3.352 3.352 0 013.004-1.814c.141 0 .311 0 .481.028l26.748 3.656c1.36.198 2.465 1.161 2.805 2.465.142.481.114.963.029 1.445l.028-.029-.085.227a3.332 3.332 0 01-.198.567l-1.19 3.683v-.028c-.142.51-.397.992-.822 1.332 2.663 1.36 5.808 3.343 8.613 6.148l-2.38-30.233c-.056-.878-.793-1.53-1.671-1.53H40.745a1.69 1.69 0 00-1.672 1.53l-3.91 49.614a1.674 1.674 0 001.672 1.813h35.05c5.326-8.642 2.21-13.26-3.004-15.867zm18.786 14.876c.028-.057.057-.114.057-.17 0 .056-.029.113-.057.17z" fill="#EEA941"/><path d="M68.881 75.228l-1.927 4.93-.028.227c-.057.34-.227.623-.397.907l-.028.056v-.028c-.397.567-.963.992-1.672 1.133-1.048.199-2.125-.226-2.72-1.076l-5.128-7.339c-6.29 4.93-13.573 8.699-21.478 10.88l-.34 4.392a1.674 1.674 0 001.672 1.814h35.05c5.326-8.67 2.21-13.29-3.004-15.896zm17.426-5.298c-2.805-2.806-5.979-4.817-8.614-6.15.425-.367.68-.82.822-1.33v.028l1.19-3.684c.085-.198.142-.368.198-.567l.085-.226-.028.028a3.55 3.55 0 00-.028-1.445c-.369-1.303-1.445-2.295-2.806-2.465l-3.23-.453a61.927 61.927 0 005.526-15.5h2.861c.879 0 1.587.68 1.672 1.53l2.352 30.234z" fill="#ED793F"/><path d="M73.188 64.12c-.907-.34-1.077-1.558-.312-2.153l4.505-3.513c.879-.68.51-2.097-.594-2.238L50.038 52.56c-1.077-.141-1.842 1.077-1.19 1.956 5.043 7.225 10.087 14.479 15.13 21.704.624.906 2.04.623 2.267-.454l1.218-5.723c.17-.765.992-1.219 1.7-.907 6.29 2.749 10.456 8.359 10.683 14.394.113 3.088-.85 5.695-1.87 7.565h8.16c.963 0 1.728-.821 1.672-1.813l-1.247-15.924c-4.25-5.242-10.2-8.047-13.374-9.237z" fill="#884594"/><path d="M75.285 35.673H72.31c-.709 0-1.247-.567-1.36-1.247a9.543 9.543 0 00-9.464-8.273 9.543 9.543 0 00-9.464 8.273c-.085.709-.623 1.247-1.36 1.247h-2.975c-.765 0-1.417-.652-1.36-1.417.708-7.707 7.225-13.77 15.13-13.77 7.906 0 14.423 6.063 15.131 13.77.114.765-.538 1.417-1.303 1.417z" fill="#EEA941"/></svg>